
<svg width="216" height="60" viewBox="0 0 216 60" fill="none" xmlns="http://www.w3.org/2000/svg">
<path d="M41.5732 3.66249L70.3116 26.056C72.8806 28.0578 72.8806 31.9422 70.3116 33.944L41.5732 56.3375C39.7663 57.7455 37.2337 57.7455 35.4268 56.3375L6.68841 33.944C4.1194 31.9422 4.11941 28.0578 6.68841 26.056L35.4268 3.66248C37.2337 2.25449 39.7663 2.25449 41.5732 3.66249Z" stroke="#00FFF0" stroke-width="2"/>
<path d="M35.5108 40.3345C33.8682 40.3345 32.1295 40.1958 30.2948 39.9185C28.4602 39.6198 26.5935 39.2145 24.6948 38.7025L25.5588 32.3665C26.4762 32.7931 27.3828 33.1878 28.2788 33.5505C29.1748 33.9131 30.0602 34.2118 30.9348 34.4465C31.8308 34.6598 32.7055 34.7665 33.5588 34.7665C34.2202 34.7665 34.7748 34.6385 35.2228 34.3825C35.6708 34.1051 36.0122 33.7638 36.2468 33.3585C36.4815 32.9318 36.5988 32.5051 36.5988 32.0785C36.5988 31.4811 36.4068 30.9691 36.0228 30.5425C35.6388 30.0945 35.1375 29.6891 34.5188 29.3265C33.9002 28.9638 33.2175 28.6118 32.4708 28.2705C31.7242 27.9291 30.9775 27.5665 30.2308 27.1825C29.4842 26.7985 28.8015 26.3611 28.1828 25.8705C27.5642 25.3585 27.0628 24.7718 26.6788 24.1105C26.2948 23.4491 26.1028 22.6598 26.1028 21.7425C26.1028 20.6331 26.3802 19.6838 26.9348 18.8945C27.4895 18.0838 28.2362 17.4225 29.1748 16.9105C30.1135 16.3985 31.1588 16.0251 32.3108 15.7905C33.4842 15.5345 34.6895 15.4065 35.9268 15.4065C37.4842 15.4065 38.9882 15.5985 40.4388 15.9825C41.9108 16.3451 43.1162 16.8678 44.0548 17.5505L42.8388 21.4545C41.9428 20.9425 41.0895 20.5265 40.2788 20.2065C39.4895 19.8865 38.6255 19.7265 37.6868 19.7265C36.7268 19.7265 35.9908 19.9611 35.4788 20.4305C34.9668 20.8998 34.6895 21.4971 34.6468 22.2225C34.6255 23.0118 34.8068 23.6731 35.1908 24.2065C35.5748 24.7185 36.0975 25.1558 36.7588 25.5185C37.4202 25.8811 38.1455 26.2118 38.9348 26.5105C39.7455 26.8091 40.5455 27.1291 41.3348 27.4705C42.1455 27.8118 42.8922 28.2278 43.5748 28.7185C44.2575 29.1878 44.8015 29.7851 45.2068 30.5105C45.6122 31.2358 45.8148 32.1318 45.8148 33.1985C45.8148 34.7771 45.3775 36.0998 44.5028 37.1665C43.6495 38.2118 42.4548 39.0011 40.9188 39.5345C39.3828 40.0678 37.5802 40.3345 35.5108 40.3345ZM50.3226 40.5585C50.4293 37.6998 50.4719 34.9691 50.4506 32.3665C50.4293 29.7425 50.3333 27.1398 50.1626 24.5585C50.0133 21.9558 49.7786 19.2571 49.4586 16.4625L58.6426 15.4385C58.6853 17.6358 58.6746 19.6838 58.6106 21.5825C58.5466 23.4598 58.4293 25.3051 58.2586 27.1185C58.1093 28.9318 57.9173 30.8305 57.6826 32.8145C57.4479 34.7985 57.1706 36.9958 56.8506 39.4065L50.3226 40.5585ZM56.8506 39.4065V31.2145C57.0853 30.1691 57.4906 29.0278 58.0666 27.7905C58.6426 26.5531 59.3679 25.3158 60.2426 24.0785C61.1173 22.8411 62.1199 21.6785 63.2506 20.5905C64.3813 19.4811 65.6079 18.5211 66.9306 17.7105C68.2746 16.8998 69.6933 16.3238 71.1866 15.9825L71.4746 23.9185C69.6186 24.0465 67.8693 24.4518 66.2266 25.1345C64.6053 25.7958 63.1439 26.7665 61.8426 28.0465C60.5413 29.3051 59.4533 30.8838 58.5786 32.7825C57.7253 34.6598 57.1493 36.8678 56.8506 39.4065ZM62.7386 39.9825C62.7386 38.8731 62.6426 37.8065 62.4506 36.7825C62.2586 35.7585 61.9919 34.8198 61.6506 33.9665C61.3093 33.1131 60.8933 32.3985 60.4026 31.8225C59.9119 31.2251 59.3786 30.8198 58.8026 30.6065L61.2986 26.5745C62.2586 26.8518 63.2826 27.2678 64.3706 27.8225C65.4799 28.3558 66.5466 29.1025 67.5706 30.0625C68.6159 31.0011 69.5333 32.1851 70.3226 33.6145C71.1119 35.0438 71.6773 36.7718 72.0186 38.7985L62.7386 39.9825ZM76.3838 40.5585C76.4905 37.6998 76.5332 34.9905 76.5118 32.4305C76.4905 29.8705 76.3945 27.3211 76.2238 24.7825C76.0745 22.2438 75.8398 19.5771 75.5198 16.7825L84.3838 15.4385C84.4265 17.6358 84.4265 19.6838 84.3838 21.5825C84.3625 23.4598 84.2878 25.3051 84.1598 27.1185C84.0532 28.9318 83.8932 30.8305 83.6798 32.8145C83.4878 34.7985 83.2318 36.9958 82.9118 39.4065L76.3838 40.5585ZM89.3141 39.1825C89.5274 37.1771 89.6874 35.4065 89.7941 33.8705C89.9221 32.3345 89.9968 30.9158 90.0181 29.6145C90.0394 28.2918 90.0074 26.9798 89.9221 25.6785C89.8368 24.3558 89.6874 22.9371 89.4741 21.4225C89.2821 19.8865 89.0261 18.1265 88.7061 16.1425L97.5701 15.6945C97.5701 17.9345 97.4954 20.0358 97.3461 21.9985C97.2181 23.9611 97.0154 25.8385 96.7381 27.6305C96.4821 29.4225 96.1621 31.1931 95.7781 32.9425C95.3941 34.6705 94.9568 36.4411 94.4661 38.2545L89.3141 39.1825ZM105.154 39.5025C104.386 39.6305 103.458 39.7371 102.37 39.8225C101.303 39.8865 100.162 39.9291 98.9461 39.9505C97.7514 39.9718 96.5461 39.9611 95.3301 39.9185C94.1354 39.8758 93.0154 39.8011 91.9701 39.6945C90.9248 39.5665 90.0394 39.3958 89.3141 39.1825L90.9461 35.4065C92.9514 35.7265 95.0421 35.7798 97.2181 35.5665C99.3941 35.3531 101.826 34.8945 104.514 34.1905L105.154 39.5025ZM109.407 39.1825C109.62 37.1771 109.78 35.4065 109.887 33.8705C110.015 32.3345 110.089 30.9158 110.111 29.6145C110.132 28.2918 110.1 26.9798 110.015 25.6785C109.929 24.3558 109.78 22.9371 109.567 21.4225C109.375 19.8865 109.119 18.1265 108.799 16.1425L117.663 15.6945C117.663 17.9345 117.588 20.0358 117.439 21.9985C117.311 23.9611 117.108 25.8385 116.831 27.6305C116.575 29.4225 116.255 31.1931 115.871 32.9425C115.487 34.6705 115.049 36.4411 114.559 38.2545L109.407 39.1825ZM125.247 39.5025C124.479 39.6305 123.551 39.7371 122.463 39.8225C121.396 39.8865 120.255 39.9291 119.039 39.9505C117.844 39.9718 116.639 39.9611 115.423 39.9185C114.228 39.8758 113.108 39.8011 112.063 39.6945C111.017 39.5665 110.132 39.3958 109.407 39.1825L111.039 35.4065C113.044 35.7265 115.135 35.7798 117.311 35.5665C119.487 35.3531 121.919 34.8945 124.607 34.1905L125.247 39.5025ZM129.499 39.5665C129.584 37.5611 129.648 35.7798 129.691 34.2225C129.734 32.6651 129.744 31.2145 129.723 29.8705C129.723 28.5051 129.691 27.1611 129.627 25.8385C129.584 24.5158 129.499 23.0971 129.371 21.5825C129.243 20.0678 129.083 18.3505 128.891 16.4305L137.435 17.1345C137.435 18.8625 137.424 20.4198 137.403 21.8065C137.403 23.1718 137.382 24.4625 137.339 25.6785C137.296 26.8945 137.222 28.1318 137.115 29.3905C137.008 30.6278 136.859 31.9825 136.667 33.4545C136.496 34.9051 136.272 36.5798 135.995 38.4785L129.499 39.5665ZM147.259 40.1425C146.299 40.1425 145.094 40.1318 143.643 40.1105C142.214 40.0891 140.667 40.0465 139.003 39.9825C137.339 39.9398 135.686 39.8865 134.043 39.8225C132.4 39.7371 130.886 39.6518 129.499 39.5665L131.131 35.7905C132.134 35.7905 133.275 35.7798 134.555 35.7585C135.856 35.7158 137.232 35.6625 138.683 35.5985C140.134 35.5345 141.584 35.4385 143.035 35.3105C144.507 35.1825 145.915 35.0225 147.259 34.8305V40.1425ZM143.067 30.7665C141.851 30.5105 140.432 30.3931 138.811 30.4145C137.211 30.4358 135.44 30.5425 133.499 30.7345L133.467 27.1505C135.174 26.9158 136.859 26.7451 138.523 26.6385C140.187 26.5105 141.67 26.4358 142.971 26.4145L143.067 30.7665ZM146.619 21.2945C145.275 21.0171 143.888 20.8251 142.459 20.7185C141.03 20.6118 139.643 20.5478 138.299 20.5265C136.955 20.5051 135.728 20.5051 134.619 20.5265C133.51 20.5478 132.614 20.5585 131.931 20.5585L128.891 16.4305C129.702 16.3451 130.704 16.2598 131.899 16.1745C133.115 16.0678 134.416 15.9718 135.803 15.8865C137.19 15.8011 138.566 15.7265 139.931 15.6625C141.318 15.5771 142.587 15.5131 143.739 15.4705C144.912 15.4065 145.872 15.3638 146.619 15.3425V21.2945ZM153.769 40.5905L150.281 35.3105C152.756 33.4545 154.964 31.6945 156.905 30.0305C158.846 28.3451 160.564 26.7131 162.057 25.1345C163.55 23.5345 164.852 21.9665 165.961 20.4305C167.07 18.8731 168.041 17.2945 168.873 15.6945L171.529 16.8785C171.124 17.9451 170.516 19.2465 169.705 20.7825C168.894 22.2971 167.913 23.9398 166.761 25.7105C165.63 27.4811 164.372 29.2731 162.985 31.0865C161.598 32.8785 160.126 34.5958 158.569 36.2385C157.012 37.8811 155.412 39.3318 153.769 40.5905ZM164.233 40.5905C163.508 38.0091 162.58 35.4278 161.449 32.8465C160.34 30.2438 158.942 27.6625 157.257 25.1025C155.593 22.5425 153.545 20.0038 151.113 17.4865L156.585 15.4385C157.694 16.1425 158.9 17.1451 160.201 18.4465C161.502 19.7478 162.836 21.2411 164.201 22.9265C165.566 24.5905 166.9 26.3398 168.201 28.1745C169.524 29.9878 170.75 31.7798 171.881 33.5505C173.012 35.3211 173.982 36.9531 174.793 38.4465L164.233 40.5905ZM191.507 40.2065C191.614 39.6945 191.742 38.9265 191.891 37.9025C192.062 36.8785 192.211 35.7051 192.339 34.3825C192.488 33.0385 192.606 31.6411 192.691 30.1905C192.776 28.7398 192.808 27.3211 192.787 25.9345C192.766 24.5478 192.67 23.2998 192.499 22.1905C192.35 21.0811 192.094 20.1958 191.731 19.5345C191.368 18.8731 190.888 18.5425 190.291 18.5425C189.651 18.5425 189.107 18.8838 188.659 19.5665C188.232 20.2278 187.88 21.1238 187.603 22.2545C187.347 23.3851 187.155 24.6758 187.027 26.1265C186.92 27.5558 186.867 29.0491 186.867 30.6065C186.867 32.1638 186.91 33.6998 186.995 35.2145C187.08 36.7078 187.187 38.0838 187.315 39.3425L178.611 40.2065C178.376 36.6225 178.398 33.3265 178.675 30.3185C178.974 27.2891 179.571 24.6651 180.467 22.4465C181.363 20.2278 182.6 18.5105 184.179 17.2945C185.779 16.0785 187.774 15.4705 190.163 15.4705C192.339 15.4705 194.12 16.0891 195.507 17.3265C196.915 18.5425 197.971 20.2491 198.675 22.4465C199.379 24.6438 199.763 27.2038 199.827 30.1265C199.912 33.0278 199.71 36.1638 199.219 39.5345L191.507 40.2065ZM181.075 34.7985L182.355 30.6065C183.678 31.1398 185.022 31.5025 186.387 31.6945C187.752 31.8651 189.086 31.9291 190.387 31.8865C191.71 31.8438 192.958 31.7585 194.131 31.6305C195.304 31.4811 196.371 31.3425 197.331 31.2145L197.651 33.8065C196.307 34.4465 194.718 34.8838 192.883 35.1185C191.07 35.3531 189.15 35.4278 187.123 35.3425C185.096 35.2571 183.08 35.0758 181.075 34.7985Z" fill="white"/>
</svg>
